<?xml version="1.0" encoding="UTF-8"?>
<svg id="a" data-name="Layer 1" xmlns="http://www.w3.org/2000/svg" viewBox="0 0 226 86.6">
  <defs>
    <style>
      .b {
        stroke: #40626d;
        stroke-miterlimit: 10;
        stroke-width: 3px;
      }

      .b, .c {
        fill: #f2e4da;
      }

      .d {
        fill: #40626d;
      }

      .e {
        fill: none;
        stroke: #fff;
        stroke-width: 10px;
      }

      .f {
        fill: #f05a28;
      }

      .g {
        fill: #f15a26;
      }
    </style>
  </defs>
  <g>
    <g>
      <rect class="e" x="48.1" y="10.8" width="172.9" height="65.1" rx="9" ry="9"/>
      <rect class="e" x="60.8" y="55.8" width="158.6" height="18.7" rx="7.5" ry="7.5"/>
      <circle class="e" cx="43.3" cy="43.3" r="38.3"/>
      <rect class="e" x="212" y="55.8" width="7.5" height="7.5"/>
      <rect class="e" x="80.2" y="54.3" width="140.8" height="1.5"/>
    </g>
    <g>
      <rect class="b" x="48.1" y="10.8" width="172.9" height="65.1" rx="9" ry="9"/>
      <rect class="f" x="60.8" y="55.8" width="158.6" height="18.7" rx="7.5" ry="7.5"/>
      <circle class="b" cx="43.3" cy="43.3" r="38.3"/>
      <rect class="g" x="212" y="55.8" width="7.5" height="7.5"/>
      <rect class="d" x="80.2" y="54.3" width="140.8" height="1.5"/>
    </g>
  </g>
  <g>
    <path class="d" d="M85.1,33.6l7-14.6h-5.2l1.9-3.9h8.6c1.6,0,3,.2,4.2.7s2.3,1.1,3,2,1.3,1.9,1.6,3.1c0,.5.2,1,.2,1.5,0,.8-.1,1.7-.4,2.6-.3,1.1-.7,2-1.2,2.9s-1.1,1.7-1.9,2.4c-.8.7-1.6,1.3-2.6,1.8s-2.1.9-3.4,1.1c-1.3.3-2.7.4-4.2.4h-7.7.1ZM91.8,29.7h1.8c1.1,0,2.2-.1,3.1-.4s1.7-.6,2.3-1.1,1.1-1,1.5-1.7.7-1.3.9-2.2c.2-.6.2-1.1.2-1.6,0-.9-.2-1.6-.6-2.2-.7-1-1.8-1.5-3.5-1.5h-.6l-5.1,10.6v.1Z"/>
    <path class="d" d="M107.2,29.9c0-.3-.1-.7-.1-1s0-.9.2-1.3c.4-1.7,1.2-3.2,2.6-4.3s2.9-1.7,4.5-1.7,1.5.1,2.1.4c.6.3,1,.7,1.4,1.3l.6-1.3h4.7l-3.7,7.7h6.2l-.7,1.4c-.3.7-.8,1.2-1.4,1.6-.6.4-1.3.6-2.1.6h-3.9c-1.1,0-1.9-.4-2.2-1.2-1.1,1.1-2.3,1.6-3.7,1.6s-1.5-.2-2.1-.5-1.2-.8-1.5-1.3c-.4-.5-.7-1.2-.8-1.9l-.1-.1ZM112,27.6v.4c0,.4.1.8.4,1.1.3.4.7.6,1.3.6s1.2-.2,1.7-.7.8-1.1.9-1.7v-.5c0-.4-.1-.8-.4-1.1-.3-.4-.7-.6-1.3-.6s-1.2.2-1.7.7-.8,1.1-.9,1.7v.1Z"/>
    <path class="d" d="M121.2,33.2l5.4-11.4h4.7l-.8,1.6c.5-.6,1.2-1.1,2-1.4.8-.3,1.5-.5,2.2-.5s1.3.2,1.8.5c.4.3.7.7.8,1.3,1.4-1.2,3-1.8,4.7-1.8s1.1.1,1.5.3.7.5.9.9c.2.3.2.7.2,1.1s-.1.9-.3,1.3l-2.1,4.3h5.9l-.7,1.4c-.3.7-.8,1.2-1.4,1.6-.6.4-1.3.6-2.1.6h-5.1c-.3,0-.7,0-1-.2s-.5-.4-.7-.6-.2-.6-.3-.9v-.2c0-.3,0-.5.2-.8l1.9-4c.1-.2.2-.4.2-.6v-.3c-.1-.2-.3-.3-.6-.4-.5,0-.9.2-1.4.6-.5.4-.8.9-1.1,1.5l-2.8,5.9h-4.7l3.2-6.8c.1-.2.2-.4.2-.6v-.3c-.1-.2-.3-.3-.6-.4-.5,0-.9.2-1.4.6-.5.4-.8.9-1.1,1.5l-2.8,5.9h-4.7l-.1.3Z"/>
    <path class="d" d="M141.2,39.1l8.2-17.2h4.2l-.6,1c.9-.8,2-1.3,3.1-1.3s1.2.2,1.8.5c.5.3,1,.7,1.3,1.3.3.5.6,1.2.7,1.9v.9c0,.5,0,.9-.2,1.4-.2.7-.4,1.4-.8,2h4.6l-.7,1.4c-.3.7-.8,1.2-1.4,1.6-.6.4-1.3.6-2.1.6h-1.3c-.7,0-1.2-.3-1.6-.9-1.2.8-2.5,1.2-3.8,1.2s-2.9-.6-3.5-1.7l-3.4,7.2h-4.6l.1.1ZM151,27.6v.4c0,.4.1.7.3,1,.3.4.7.6,1.3.6s1.2-.2,1.7-.7.8-1,.9-1.7v-.4c0-.4-.1-.8-.4-1-.3-.4-.7-.6-1.3-.6s-1.2.2-1.7.7-.8,1-.9,1.7h.1Z"/>
    <path class="d" d="M170.2,28.4c0-.5,0-1,.2-1.5.4-1.3.8-2.5,1.3-3.7.5-1.1,1.2-2.2,2-3.2s1.7-1.8,2.6-2.6c1-.7,2.1-1.3,3.3-1.7s2.6-.6,4-.6h4.8c.6,0,1,.2,1.3.7.2.3.3.5.2.8,0,.2,0,.5-.2.7l-2.5,5.3h-4.8l1.7-3.6h-1c-.8,0-1.6.2-2.4.5-.8.3-1.4.8-2,1.3s-1.1,1.1-1.6,1.8-.9,1.4-1.2,2.1c-.3.7-.6,1.4-.8,2.1-.1.4-.2.8-.2,1.1,0,1.1.7,1.6,2.1,1.7h12.3l-1.9,3.9h-11.4c-.8,0-1.6,0-2.3-.3-.7-.2-1.2-.5-1.7-.8-.4-.3-.8-.7-1.1-1.2-.3-.4-.5-.9-.6-1.4,0-.4-.1-.9-.1-1.4v-.2.2Z"/>
    <path class="d" d="M188.6,27.6c.3-1.7,1.1-3.1,2.5-4.3s3-1.7,4.9-1.7,2,.2,2.8.5,1.5.8,2,1.5h6.4l-.7,1.4c-.3.7-.8,1.2-1.4,1.6-.6.4-1.3.6-2.1.6h-1.2v.4c-.2,1.1-.6,2.1-1.3,3-.7.9-1.6,1.7-2.6,2.2-1.1.5-2.2.8-3.5.8s-2.4-.3-3.3-.8-1.6-1.3-2-2.2c-.3-.6-.4-1.3-.4-2.1v-.9h-.1ZM193,27.6v.4c0,.4.1.8.4,1.1.3.4.7.6,1.3.6s1.2-.2,1.7-.7.8-1,.9-1.7h-1.8l.9-1.9c-.2,0-.4-.1-.7-.1-.7,0-1.2.2-1.7.7s-.8,1-.9,1.7l-.1-.1Z"/>
    <path class="d" d="M201.7,32.8c-.4-.4-.5-.9-.5-1.5s.4-1.1.9-1.6c.5-.4,1.1-.7,1.7-.7s1.1.2,1.5.6c.4.4.5.9.5,1.5s-.4,1.1-.9,1.6c-.5.4-1.1.7-1.7.7s-1.1-.2-1.5-.6Z"/>
  </g>
  <g>
    <path class="d" d="M90.6,45.1v5.5h-2.3v-9.6h2.5l1.9,4.5,1.8-4.5h2.6v9.6h-2.3v-5.6l-1.6,3.8h-1l-1.6-3.7h0Z"/>
    <path class="d" d="M107,50.5h-2.5v-2.4h-2.2v2.4h-2.5v-8.5c0-.7.5-1.1,1.1-1.1h4.9c.7,0,1.1.5,1.1,1.1v8.5h.1ZM104.5,46v-2.9c0-.2-.1-.3-.3-.3h-1.5c-.2,0-.3.1-.3.3v2.9h2.2-.1Z"/>
    <path class="d" d="M112,45.2v5.3h-2.3v-9.6h2.3l2.9,5.3v-5.3h2.3v9.6h-2.4l-2.8-5.3Z"/>
    <path class="d" d="M122.4,40.9v7.4s0,.1.1.1h1.8s.2,0,.2-.1v-7.4h2.5v8.5c0,.6-.5,1.1-1.1,1.1h-4.9c-.6,0-1.1-.5-1.1-1.1v-8.5h2.5Z"/>
    <path class="d" d="M129.7,40.9h6.1v2.1h-3.6v2.2h3.1v2.1h-3.1v3.3h-2.5v-9.7Z"/>
    <path class="d" d="M145,50.5h-2.5v-2.4h-2.2v2.4h-2.5v-8.5c0-.7.5-1.1,1.1-1.1h4.9c.7,0,1.1.5,1.1,1.1v8.5h.1ZM142.6,46v-2.9c0-.2-.1-.3-.3-.3h-1.5c-.2,0-.3.1-.3.3v2.9h2.2-.1Z"/>
    <path class="d" d="M154.7,46.9v2.5c0,.6-.5,1.1-1.1,1.1h-4.8c-.6,0-1.1-.5-1.1-1.1v-7.5c0-.6.5-1.1,1.1-1.1h4.8c.6,0,1.1.5,1.1,1.1v2.5h-2.5v-1.3s0-.2-.1-.2h-1.8s-.2,0-.2.2v5.2s0,.1.2.1h1.8s.1,0,.1-.1v-1.4h2.5Z"/>
    <path class="d" d="M163,40.9v2.1h-2.2v7.6h-2.5v-7.6h-2.2v-2.1h6.9Z"/>
    <path class="d" d="M167.3,40.9v7.4s0,.1.1.1h1.8s.2,0,.2-.1v-7.4h2.5v8.5c0,.6-.5,1.1-1.1,1.1h-4.9c-.6,0-1.1-.5-1.1-1.1v-8.5h2.5Z"/>
    <path class="d" d="M180.7,40.9c.6,0,1.1.5,1.1,1.1v4.4c0,.6-.5,1.1-1.1,1.1h0l1.2,3.1h-2.4l-1.2-3.1h-1.1v3.1h-2.5v-9.6h6.1l-.1-.1ZM179.3,43.1s0-.1-.1-.1h-2.1v2.6h2.1s.1,0,.1-.1v-2.4Z"/>
    <path class="d" d="M186.8,50.5h-2.5v-9.6h2.5v9.6Z"/>
    <path class="d" d="M191.8,45.2v5.3h-2.3v-9.6h2.3l2.9,5.3v-5.3h2.3v9.6h-2.4l-2.8-5.3Z"/>
    <path class="d" d="M203.1,44.6h4.4v2h-.8v2.8c0,.6-.5,1.1-1.1,1.1h-4.8c-.6,0-1.1-.5-1.1-1.1v-7.5c0-.6.5-1.1,1.1-1.1h6v2.1h-4.5s-.1,0-.1.2v5.2s0,.1.1.1h2s.2,0,.2-.1v-1.6h-1.3v-2l-.1-.1Z"/>
  </g>
  <g>
    <path class="c" d="M82.4,61.3h1.8v5.5h2.3v1.5h-4.1v-7.1.1Z"/>
    <path class="c" d="M93.8,61.3c.5,0,.8.3.8.8v5.4c0,.5-.3.8-.8.8h-3.6c-.5,0-.8-.3-.8-.8v-5.4c0-.5.3-.8.8-.8h3.6ZM92.8,63s0-.1-.1-.1h-1.4v3.9h1.5v-3.8Z"/>
    <path class="c" d="M98,66.9h2.8v-1h-1.9c-.5,0-.8-.3-.8-.8v-2.7c0-.5.3-.8.8-.8h3.7v1.5h-2.6s-.1,0-.1.1v1h1.9c.5,0,.8.3.8.8v2.7c0,.5-.3.8-.8.8h-3.8v-1.6Z"/>
    <path class="c" d="M115.3,68.4h-1.8v-1.8h-1.6v1.8h-1.8v-6.2c0-.5.3-.8.8-.8h3.6c.5,0,.8.3.8.8v6.2ZM113.4,65.1v-2.1c0-.1-.1-.2-.3-.2h-1.1c-.1,0-.2,0-.2.2v2.1h1.6Z"/>
    <path class="c" d="M120.5,64.5v3.9h-1.7v-7.1h1.7l2.1,3.9v-3.9h1.7v7.1h-1.7l-2.1-3.9Z"/>
    <path class="c" d="M130.3,64.1h3.2v1.5h-.6v2c0,.5-.4.8-.8.8h-3.5c-.5,0-.8-.3-.8-.8v-5.5c0-.4.4-.8.8-.8h4.4v1.5h-3.3s-.1,0-.1.1v3.8s0,.1.1.1h1.5s.1,0,.1-.1v-1.2h-1v-1.5.1Z"/>
    <path class="c" d="M136.8,61.3h4.6v1.5h-2.8v1.2h2.4v1.5h-2.4v1.3h2.8v1.5h-4.6v-7.1.1Z"/>
    <path class="c" d="M144.7,61.3h1.8v5.5h2.3v1.5h-4.1v-7.1.1Z"/>
    <path class="c" d="M151.9,61.3h4.6v1.5h-2.8v1.2h2.4v1.5h-2.4v1.3h2.8v1.5h-4.6v-7.1.1Z"/>
    <path class="c" d="M159.7,66.9h2.8v-1h-1.9c-.5,0-.8-.3-.8-.8v-2.7c0-.5.3-.8.8-.8h3.7v1.5h-2.6s-.1,0-.1.1v1h1.9c.5,0,.8.3.8.8v2.7c0,.5-.3.8-.8.8h-3.8v-1.6Z"/>
    <path class="c" d="M166.9,66.5h1.8l-1.3,3.2h-1.5l1-3.2Z"/>
    <path class="c" d="M179.8,65.8v1.8c0,.5-.4.8-.8.8h-3.6c-.5,0-.8-.3-.8-.8v-5.5c0-.4.4-.8.8-.8h3.6c.5,0,.8.4.8.8v1.8h-1.8v-1.1h-1.3s-.1,0-.1.1v3.8s0,.1.1.1h1.3v-1.1h1.8v.1Z"/>
    <path class="c" d="M188.3,68.4h-1.8v-1.8h-1.6v1.8h-1.8v-6.2c0-.5.3-.8.8-.8h3.6c.5,0,.8.3.8.8v6.2ZM186.5,65.1v-2.1c0-.1-.1-.2-.3-.2h-1.1c-.1,0-.2,0-.2.2v2.1h1.6Z"/>
    <path class="c" d="M191.8,61.3h1.8v5.5h2.3v1.5h-4.1v-7.1.1Z"/>
    <path class="c" d="M200.8,68.4h-1.8v-7.1h1.8v7.1Z"/>
    <path class="c" d="M204.4,61.3h4.5v1.5h-2.7v1.6h2.3v1.5h-2.3v2.4h-1.8v-7.1.1Z"/>
    <path class="c" d="M212.4,68.4h-2v-1.9h2v1.9Z"/>
  </g>
  <path class="d" d="M17,48c-1.3.3-2.2,1-3.3,1.6,0-.3-.1-.4-.1-.6,0-1.3-.1-2.6,0-3.9.2-1.7,1-3.3,2.3-4.5.3-.2.5-.5.8-.8-.3-.4-.8-.4-1.2-.5-.9-.2-1.7-.3-2.6-.3-.7,0-.8,0-.6-.8.4-1.5,1-2.9,2-4.1.4-.5.9-.9,1.4-1.3.5-.4.5-.5,0-.7-.7-.3-1.3-.5-2-.8-.4-.1-.4-.3-.1-.6.8-.7,1.6-1.5,2.5-2.2,1-.9,2-1.9,3-2.8.2-.2.3-.3.4-.5.2-.2.2-.4,0-.6-.7-.4-1.3-.8-2-1.1-.3-.1-.3-.2,0-.4,2.1-1.8,4.1-3.6,6.2-5.4.3-.3.7-.5,1.1-.8-.3-.2-.5-.4-.7-.7-.4-.4-.4-.6,0-.8,1.2-.7,2.5-1.3,3.8-1.9,1.7-.8,3.5-1.1,5.4-1.2.8,0,1.6-.2,2.3-.4.8-.2,1.6-.2,2.4,0,1.5.2,2.9.5,4.4.8,1.6.4,3.2.8,4.8,1.2,2.3.6,4.4,1.4,6.6,2.2.8.3,1.6.6,2.5.9.4.1.8.1,1.1.1,1.1.1,2,.6,2.8,1.3s1.6,1.5,2.3,2.3c.7.7.9,1.6.9,2.6v.9h1c.7,0,1.6.6,1.8,1.3v.8c-.2,1.4.6,2.3,1.7,3,.7.4,1.3,1.1.9,2.2-.3.7-.1,1.3.3,1.9.4.6.8,1.2,1.1,1.8s.3,1.2,0,1.9c-.3.5-.3.6.2,1,1.5,1.5,2.5,3.3,3.3,5.2.3.8.6,1.6.8,2.5.3,1.1-.3,2.5-1.7,2.6-.3,0-.4.2-.4.5,0,.8,0,1.7-.2,2.5,0,.2,0,.6.1.8.5.8.4,1.5,0,2.1-.3.4-.5.8-.8,1.1-.3.4-.3.5,0,.8.2.2.4.4.5.6.5.7.6,1.4.3,2.2-.5,1.1-1.2,2-2.4,2.4-.7.2-1.4.3-2.1.3-1.9.1-3.5.9-4.6,2.5-.7,1-1.5,2-2.3,3-1.3,1.5-2.8,2.8-4.6,3.6-.3.1-.6.3-.8.5-.6.4-.8.8-.6,1.5.2.8.5,1.6,1.3,2l.1.1v.2c-4,.7-7.2-.5-9.7-3.8-.3.3-.5.5-.8.7-.3.3-.7.5-1,.8-.6.4-.9.9-.7,1.6v.5c0,.3-.1.4-.4.3-.5-.4-1.1-.8-1.5-1.2-.8-.9-1.2-2-1.4-3.1,0-.4-.1-.4-.5-.3-1.2.4-1.9,1.3-2.4,2.4,0,.2-.2.5-.4.7-.1.2-.2.2-.4,0-1.1-1.3-2.2-2.6-2.4-4.4v-.1c-.1-.5-.3-.6-.8-.3-.6.4-1.1,1-1.5,1.7-.2.2-.3.5-.5.7-.2.3-.3.3-.5,0-.5-.6-.9-1.2-1.4-1.8-.6-.8-.9-1.7-1.1-2.6-.1-.4-.2-.5-.7-.4-.5,0-1.1.2-1.6.3-.6,0-1.1.4-1.5.8-.2.2-.4.4-.6.6-1.8-2.6-2.2-5.3-1.4-8.3-1.6.7-3.1,1.5-4.3,2.9,0-.4-.1-.8-.2-1.2-.1-1.4-.2-2.8,0-4.1,0-.6.2-1.2.4-1.8.1-.4,0-.5-.4-.5-.9,0-1.8.2-2.7.3q-.5,0-.4-.4c0-1,.2-2,.4-3.1.1-.8.3-1.6.5-2.4.1-.5.4-1,.6-1.5v-.3.2ZM53.1,23.5h-.9c-.9,0-1.6.7-1.6,1.6v1.5c0,.4-.2.8-.6,1s-.8.4-1.2.6c-.2,0-.4.2-.4.5,0,.5,0,1-.1,1.5,0,.9-.5,1.3-1.4,1.4h-.5c-.3,0-.4.1-.3.4.1.3.2.6.4.9,0,.2.2.4.2.6.2,1-.3,1.5-1.3,1.5-.7,0-.8.1-.4.7.4.7.4,1.3-.2,1.8-.4.4-.9.7-1.4,1-.2.1-.3.3-.3.6.1.8.3,1.6.3,2.5,0,.3.1.6.4.8.2.1.3.2.5.4.4.3.7.3,1.1,0,.8-.4,1.7-.8,2.6-.7.7,0,1.1-.3,1.4-.9,1.7-3.1,3.5-6.2,5.7-9,2-2.6,4.1-5.1,7-6.8,0,0,.2-.3.2-.4,0-.6-.2-1.1-.3-1.7-.4-2-1.7-3.3-3.5-4.2-.7-.3-.8-.3-.8.5,0,.9-.4,1.3-1.2,1.5-.7.2-1.3.4-1.7,1-.2.3-.3.6-.4,1,0,.2-.2.3-.4.3h-.9v.1ZM69.4,56.2l1.2-1.2c.2-.3.4-.6.6-.9.2-.3.2-.6,0-.9-.3-.2-.6-.5-.9-.6-1-.3-2,0-2.9.2-.8.2-1.4.6-2.1,1.1-.1.1-.4.2-.5.1-.1,0-.2-.3-.2-.5,0-.3,0-.6.2-.9.2-.5.6-.9,1.2-.8.3,0,.7,0,1-.1,1.1-.2,2.2-.5,3.3-.5h.5c.5,0,.6-.3.5-.8s-.2-1-.4-1.4c-.3-.7-.6-.9-1.4-.8-.5,0-1,.2-1.5.2-.6,0-1.1,0-1.1-.8,0-.2-.2-.3-.4-.2-.2,0-.4.2-.5.3-.6.4-1.2.9-1.7,1.4-.7.6-1.3,1.2-1.5,2.1-.1.5-.1,1-.2,1.6,0,.3,0,.6-.2,1,0,.1-.1.2-.2.3,0,0-.2,0-.3-.2s-.2-.4-.3-.6c-.6-1.1-1.2-2.3-1.9-3.4-.5-.9-1.3-1.5-2.2-2.1-.4-.2-.5-.2-.6.3,0,.8,0,1.5-.2,2.3,0,.7-.2,1.3-.4,2-.1.5-.4.9-.6,1.3-.2.3-.2.5,0,.8.7,1,1.4,2.1,2.1,3.2.8,1.4,2,2.2,3.6,2.4,1.1.1,2.2.3,3.2.3,1.6.1,3.2.3,4.8,0,.8,0,1.3-.5,1.6-1.2s.1-1.4-.5-1.9c-.4-.3-.7-.7-1.1-1.1h0ZM61.7,39.9v-.1c.1-.1.3-.2.4-.3.8-.4,1.6-.6,2.4-.7.6,0,1.2-.2,1.8-.3.2,0,.4-.2.5-.4,0-.2-.1-.5-.3-.6,0,0-.3-.1-.4-.1h-3.2c-.2,0-.5.1-.6.2-.7.6-1.4,1.2-2.1,1.8-1.5,1.4-3,2.8-4.4,4.2-.3.3-.3.5,0,.7,1.2,1.3,2.5,2.5,4,3.5,1.4.9,2.8,1,4.3.3,1.2-.6,2.3-1.3,3.3-2.3.2-.2.6-.3.9-.4.1,0,.3,0,.4.2,0,0,0,.3-.2.4-.1.3-.3.6-.4.9,0,.3.1.5.4.5.5,0,1-.1,1.6-.2.6-.1,1.2-.2,1.8,0,.3.1.6.2.9.3.6.1.9-.2.7-.7,0-.2,0-.4-.2-.6-.7-1.5-1.3-3-2-4.4-.5-1.1-1.3-2-2.4-2.5-.8-.4-1.1-.2-1.3.6s-.5,1.5-1.1,2.1c-.3.3-.7.6-1.1.6-.3,0-.4-.1-.2-.4.2-.3.4-.7.5-1s0-.5-.3-.6c-.1,0-.3-.1-.5-.1-.9,0-1.8-.2-2.7-.3-.2,0-.4-.1-.6-.2l.1-.1ZM30.1,18.5h-.3c-1.2.7-2.5,1.4-3.7,2.2-.4.2-.7.6-1.1.8-.2.1-.2.3,0,.4.7.5,1.3,1.1,2.1,1.3.5.1,1.1,0,1.6.2,1.2.3,2.4.6,3.7.9,1.1.3,2.3.5,3.4.3,1.6-.2,3.1-.4,4.7-.6,1.5-.2,3.1,0,4.5.3.9.2,1.8.4,2.6.6.6.1.7,0,1-.5.4-.7.5-1.7,1.4-2,.2,0,.2-.3,0-.4-.3-.1-.6-.3-.9-.4-1.7-.7-3.4-1.3-5.1-2-1.1-.4-2.3-.8-3.5-.8h-2.7c-1.5,0-3.1,0-4.6-.1-1,0-2.1-.2-3.1-.2ZM40.1,33.6c-1.6.2-3.1.4-4.7.6-.3,0-.7.2-1,.4-.4.2-.7.5-1.1.7-1.4.5-2.8.9-4.2,1.3-1.8.5-3.5,1-5.3,1.6-2.1.6-3.8,1.8-5,3.6-.4.6-.8,1.3-1.2,1.9-.2.3-.1.5.2.5,1,.2,1.9.4,2.9.6,1.2.2,2.3,0,3.4-.6,1.5-.7,2.7-1.6,4-2.6.5-.4,1.1-.9,1.7-1.1.9-.2,1.7-.5,2.6-.7,1.5-.4,2.8-1.1,4.1-1.9.5-.3,1.1-.5,1.8-.5,1.4,0,2.8-.1,4.1-.6.6-.2.6-.3.4-.9-.3-.6-.6-1.2-.7-1.9,0-.2-.2-.4-.4-.4h-1.6ZM27.9,24.7c-.9,0-1.8.1-2.4.7-1.6,1.5-3.3,3-4.9,4.4-.1.1-.2.3,0,.4.6.5,1.3,1.1,1.9,1.6.4.4.9.4,1.5.2.2,0,.4-.1.6-.2,1.6-.5,3.3-1,4.9-1.5.8-.3,1.7-.6,2.6-.5,1.1,0,2.2,0,3.3.1.6,0,1.1,0,1.6-.3.2-.1.4-.2.6-.3.6-.3,1.3-.6,2-.7,1.9-.2,3.8.1,5.7.4.9.1,1,0,1.3-.7v-.1c.2-.5.2-1,.7-1.4v-.3c-.2-.1-.4-.2-.6-.3-1.7-.5-3.5-.9-5.2-.9-1.5,0-2.9.1-4.3.4-.9.2-1.9.4-2.8.3-1.1-.2-2.2-.5-3.2-.7-1-.3-2-.6-3.1-.5l-.2-.1ZM38.8,38.8c-1.1,0-2.1.3-3.1.9-1,.6-2.1,1-3.2,1.4-.9.3-1.9.5-2.8,1-.7.5-1.3,1-2,1.5-1.3,1-2.6,1.8-4.1,2.3-.7.3-1.4.5-2,1-1.4,1.2-1.9,2.8-2.1,4.5,0,.1.2.4.3.4.9.5,1.8.4,2.7-.2,2.1-1.4,4.2-2.7,6.4-4.1.8-.5,1.5-1.1,2.1-1.8.6-.8,1.4-1.4,2.3-1.8.7-.3,1.4-.6,2.2-.9,1.7-.6,3.5-1.2,5.4-1.5.2,0,.3-.1.3-.4,0-.6,0-1.1-.1-1.7,0-.3-.2-.5-.6-.5h-1.7v-.1ZM41.3,42.8h-.4c-1.7.3-3.3.7-4.9,1.2-1.8.6-3.4,1.5-4.8,2.8-1.2,1-2.4,2-3.7,2.9-1.1.8-2.3,1.5-3.4,2.3-.4.3-.9.6-1.1,1.2-.2.9-.4,1.8-.6,2.6,0,.3,0,.5.4.5h.6c.7,0,1.4,0,2.1.1.7,0,1.3-.1,1.9-.5.8-.5,1.4-1.2,1.9-2,.8-1.2,1.8-2,3.1-2.5,1.3-.5,2.3-1.4,3-2.7.6-1.2,1.6-2.2,2.5-3.1,1-.9,2-1.8,3-2.7.1,0,.2-.2.3-.4l.1.3ZM43,44.1h-.4c-.3.1-.6.2-.8.4-1.3,1-2.5,2-3.7,3.1-.9.8-1.8,1.7-2.3,2.8-.6,1.2-1.5,1.9-2.8,2.4-.7.3-1.4.6-1.9,1.2-.4.4-.7.8-1.1,1.3-.8.9-1.6,1.9-2.7,2.5-.3.2-.7.4-1.1.5-.2.1-.3.2-.2.5.3.8.6,1.7.9,2.5.3,1,.3,1.1,1.5,1,.8,0,1.5-.4,1.9-1.2.1-.2.3-.4.4-.6,1.3-1.5,2.7-2.8,4.4-3.9.6-.4,1-.8,1.3-1.5.7-1.4,1.6-2.6,2.6-3.7.5-.6,1-1.1,1.5-1.7.2-.2.3-.6.4-.9,0-1.5.7-2.8,1.6-4,.1-.2.3-.4.5-.7h0ZM37.9,17.7h.6c1.9,0,3.9,0,5.7.7,1.7.7,3.5,1.3,5.2,2,1.1.4,2.2.8,3.3.8.4,0,.7-.1,1-.5.3-.5.7-.8,1.3-1.1.3-.1.7-.2,1.1-.3.1,0,.2-.1.3-.2,0,0,0-.2-.2-.3,0,0-.2-.2-.3-.2-1.2-.5-2.4-1.1-3.7-1.6-2.3-.9-4.7-1.6-7.1-2.1-1.3-.3-2.6-.6-4-.8-.7-.1-1.3-.3-2,0-.9.3-1.7.5-2.6.8-.9.4-1.8.8-2.7,1.3-.2.1-.5.3-.4.7s.2.7.6.8c.3,0,.6.1.8.1h3l.1-.1ZM43.9,32.4c0-.6,0-1.2-.1-1.7,0-.1-.2-.3-.3-.3-1.3-.3-2.5-.5-3.8-.4-.7,0-1.3.2-1.9.5-.4.2-.8.4-1.2.6-1,.3-2.1.3-3.2.2-1.5-.1-3,0-4.4.5-1.1.3-2.2.8-3.3,1.1-1.5.4-2.9.7-4.4,1-1.4.2-2.5.9-3.4,2-.3.4-.3.6.1.9l.2.1c.7.3,1.4.6,2.2.8.4.1.9.2,1.3.1,1.2-.3,2.3-.7,3.4-1.1,2-.7,4-1.2,6-1.7.6-.1,1.3-.2,1.9-.5s1.1-.8,1.6-1.3c.1,0,.2-.2.4-.2.5,0,1,0,1.5-.1.9,0,1.8-.1,2.7-.3,1.1-.2,2.2-.3,3.4-.1h1.2l.1-.1ZM41.9,54.3v-.2c-.3-.7-.6-1.4-.9-2-.2-.5-.4-.5-.8-.1-1.3,1.2-2.3,2.6-3.1,4.2-.4.7-.9,1.3-1.6,1.7-1.6,1-3,2.2-4.1,3.9,0,.1-.1.3,0,.4.5.9,1,1.8,1.5,2.8.1.2.3.3.5.2.3,0,.6-.2.9-.3.7-.3,1.5-.4,2-1,.9-1,1.9-2,2.6-3.2,1-1.7,1.7-3.5,2.6-5.3.2-.4.3-.8.5-1.1h-.1ZM48.9,43.5c-1,0-2,.2-2.9.6-3.5,1.5-4.9,5.5-2.9,8.8,1,1.7,2.6,2.6,4.5,3,1.4.3,2.8.1,4-.5,2-1.1,3.4-2.7,3.6-5,.2-1.5-.1-3-1-4.2-1.3-1.8-3.2-2.5-5.3-2.6v-.1ZM44.9,57c0-.1-.2-.3-.3-.4-.5-.3-1-.6-1.4-.9-.3-.2-.5-.1-.6.2-.7,1.2-1.3,2.4-1.7,3.7-.3.9-.6,1.8-1.2,2.5-.7.9-1.5,1.7-2.3,2.6,0,0-.2.3-.1.4.3.6.6,1.1.9,1.7.2.3.4.3.7.2.9-.4,1.9-.7,2.8-1.1.2,0,.3-.2.4-.4.1-.3.2-.6.3-.8.8-2.1,1.5-4.2,2.3-6.3.1-.4.2-.7.4-1.2l-.2-.2ZM48.6,59.4v-.9c0-.5-.3-.9-.9-1-.4,0-.7-.2-1.1-.2-.6,0-.7,0-.9.5-.3.7-.7,1.5-.9,2.3-.6,1.8-1.2,3.6-1.8,5.3v.6c.3.6.7,1.1,1,1.7.2.3.4.3.7.1,1-.6,1.8-1.5,2.3-2.6.2-.4.4-.8.5-1.2.6-1.4,1-2.9,1.1-4.6h0ZM56.9,60.7c0-1.8-.6-3.3-1.9-4.6-.8-.8-1-.8-1.8,0-.2.2-.2.4,0,.6,2,1.8,2.4,5,1.3,7.4-.4.8-.9,1.6-1.4,2.4-.6,1-1.3,2-1.4,3.3-.1.7,0,1.3.4,1.8,0,0,.2.1.3.2,0-.1.1-.2.2-.3v-.2c0-1,.3-1.8.8-2.6.7-1.1,1.4-2.2,2-3.3.9-1.4,1.5-3,1.4-4.7h.1ZM50,57.6h0v.3c0,.4.1.8.1,1.2,0,1.2-.4,2.3-.9,3.4-.7,1.5-1.5,2.9-1.8,4.5-.3,1.4-.2,2.6.6,3.8.7,1,1.6,1.8,2.7,2.3h.3v-.3c-.2-.4-.5-.7-.8-1-.5-.7-1-1.5-1.1-2.4-.2-1.3.2-2.5.7-3.7.5-1.3,1.1-2.6,1.6-4,.5-1.5.1-2.8-1-3.9,0-.1-.2-.2-.3-.3l-.1.1ZM54.7,69.2h0c.2,0,.3,0,.5-.1.8-.4,1.6-.8,2.4-1.1,1-.5,1.9-1,2.6-1.9.9-1.2,1.7-2.3,2.6-3.5.2-.2,0-.5-.2-.5-.8,0-1.7,0-2.5.2-1,.4-1.8,1.1-2.4,1.9-1,1.5-1.9,3-2.8,4.4l-.3.6h.1ZM67.1,31.5h-.4c-1.2.5-2.4,1.2-3.4,2.1-1.5,1.4-3,2.8-4.4,4.3-.6.6-1.2,1.4-1.7,2.1,0,0,0,.2-.1.4.5-.1,9.7-8.4,10.1-8.9h-.1ZM54,35.9h.1c.2-.2.4-.4.5-.5,2.3-2.8,5-5.2,7.8-7.5.6-.5,1.3-.9,2-1.4.2-.1.3-.3.5-.4h0c-.3-.1-.7-.1-1,0-1,.2-1.9.8-2.7,1.5-2.6,2.3-4.7,5-6.8,7.7-.1.2-.2.4-.3.5l-.1.1ZM69.2,36.1v-.1c-.5-.9-1-1.8-1.9-2.4h-.4c-1,.5-2,1.2-2.8,2,0,0,0,.2-.1.3.1,0,.2.1.3.1.4,0,.8,0,1.2-.1,1-.1,1.9-.4,2.9,0,.2,0,.4.1.7.2h.1ZM63.7,28.6c.4.6.8,1.1,1.1,1.6.3.4.9.4,1.2,0,0-.1.1-.4,0-.5-.3-.6-.7-1.1-1.1-1.7,0,0-.3-.1-.3,0-.3.2-.7.5-1,.7l.1-.1ZM64.3,31.1c0-.1,0-.3-.2-.4-.2-.4-.5-.7-.7-1.1-.5-.6-.3-.7-1,0-.2.2-.3.4-.1.7.3.4.6.9.9,1.3,0,.1.3.3.5.2.3-.1.6-.3.6-.7ZM62.7,32.5v-.1c-.4-.5-.8-1-1.2-1.4-.2-.2-.4-.3-.7,0s-.5.5-.3.8c.3.5.7,1,1.1,1.5,0,0,.3.1.4,0,.2-.1.4-.4.6-.5v-.2l.1-.1ZM61,34c0-.2-.1-.3-.2-.4-.2-.3-.5-.6-.7-1-.3-.6-.6-.5-1.2,0-.1,0-.2.4,0,.5.3.5.7.9,1,1.4.1.2.4.3.6.1s.4-.4.6-.6h-.1ZM57.7,33.7c-.2.3-.4.5-.6.8v.4c.3.4.7.8,1.1,1.1.2.2.4.2.6,0s.5-.4.6-.5c-.6-.6-1.1-1.2-1.7-1.9v.1ZM56.4,38.6c0-.1-.1-.3-.2-.4-.2-.2-.4-.4-.6-.6q-.7-.6-1.2.2c-.1.2-.1.4,0,.6.3.3.6.5.8.8.2.2.4.3.6.1.3-.2.5-.4.6-.8v.1ZM55.5,36.3c.1.2.2.3.2.4.2.3.5.5.7.8.6.6.8.5,1.2-.2v-.3c-.4-.5-.8-.9-1.3-1.3,0,0-.2-.1-.3,0-.2.2-.4.5-.6.8l.1-.2ZM53,40.1c0,.5.4.7.7.9.5.4.8.3,1.2-.2.2-.3.2-.5,0-.7-.3-.2-.5-.4-.8-.6-.5-.3-1,0-1,.6h-.1ZM53.2,43c.2-.2.4-.3.5-.5v-.4c-.3-.3-.7-.6-1-.8h-.4c-.2.2-.3.4-.3.7v.3c.4.2.8.5,1.3.7h-.1Z"/>
  <path class="d" d="M49,44.7c.8,0,1.6,0,2.4.4,1.5.9,2.6,2.1,2.7,4,0,1.1,0,2.1-.6,3.1-.8,1.2-1.8,2-3.1,2.5-.4.1-.9.1-1.4.1-.8,0-1.7,0-2.4-.4-1.5-.8-2.6-1.9-3-3.5-.5-2.1.2-4,2.1-5.4,1-.7,2.1-.9,3.3-.8h0ZM48.7,52.8c.4,0,.8-.1,1.2-.2,2.1-.5,2.8-3.1,1.5-4.8-.9-1.1-2.4-1.5-3.9-1-1.8.6-2.6,2.7-1.7,4.3.6,1.1,1.6,1.6,2.9,1.7Z"/>
  <path class="d" d="M48.1,47.8c.2.1.4.2.6.4s.5.3.8,0c.5-.3.6-.3,1,.2h0c.27.33.23.67-.1,1-.4.3-.4.5,0,.9q.3.3,0,.6h0c-.8.7-.7.7-1.4,0-.2-.2-.4-.2-.7,0-.4.4-.5.3-.9,0-.1-.1-.2-.3-.3-.4-.2-.3-.1-.5.1-.7.5-.4.6-.4.2-1-.2-.3-.1-.5.2-.7.2-.1.4-.2.7-.4l-.2.1Z"/>
</svg>