<?xml version="1.0" encoding="UTF-8" standalone="no"?>
<svg
   xmlns:dc="http://purl.org/dc/elements/1.1/"
   xmlns:cc="http://creativecommons.org/ns#"
   xmlns:rdf="http://www.w3.org/1999/02/22-rdf-syntax-ns#"
   xmlns:svg="http://www.w3.org/2000/svg"
   xmlns="http://www.w3.org/2000/svg"
   width="186.2793mm"
   height="100.06055mm"
   viewBox="0 0 186.2793 100.06055"
   version="1.1"
   id="svg8">
  <defs
     id="defs2" />
  <metadata
     id="metadata5">
    <rdf:RDF>
      <cc:Work
         rdf:about="">
        <dc:format>image/svg+xml</dc:format>
        <dc:type
           rdf:resource="http://purl.org/dc/dcmitype/StillImage" />
        <dc:title></dc:title>
      </cc:Work>
    </rdf:RDF>
  </metadata>
  <g
     id="layer1"
     transform="translate(-0.61914062,146.78516)">
    <g
       id="g887">
      <g
         id="g854"
         style="opacity:1">
        <path
           style="color:#000000;font-style:normal;font-variant:normal;font-weight:normal;font-stretch:normal;font-size:medium;line-height:normal;font-family:sans-serif;font-variant-ligatures:normal;font-variant-position:normal;font-variant-caps:normal;font-variant-numeric:normal;font-variant-alternates:normal;font-variant-east-asian:normal;font-feature-settings:normal;font-variation-settings:normal;text-indent:0;text-align:start;text-decoration:none;text-decoration-line:none;text-decoration-style:solid;text-decoration-color:#000000;letter-spacing:normal;word-spacing:normal;text-transform:none;writing-mode:lr-tb;direction:ltr;text-orientation:mixed;dominant-baseline:auto;baseline-shift:baseline;text-anchor:start;white-space:normal;shape-padding:0;shape-margin:0;inline-size:0;clip-rule:nonzero;display:inline;overflow:visible;visibility:visible;isolation:auto;mix-blend-mode:normal;color-interpolation:sRGB;color-interpolation-filters:linearRGB;solid-color:#000000;solid-opacity:1;vector-effect:none;fill:#000000;fill-opacity:1;fill-rule:nonzero;stroke:none;stroke-width:0;stroke-linecap:butt;stroke-linejoin:round;stroke-miterlimit:4;stroke-dasharray:none;stroke-dashoffset:0;stroke-opacity:1;color-rendering:auto;image-rendering:auto;shape-rendering:auto;text-rendering:auto;enable-background:accumulate;stop-color:#000000;stop-opacity:1"
           d="m 181.92632,-96.75444 c 0,24.870628 -39.47388,45.032254 -88.167371,45.032253 -48.693492,0 -88.1673657,-20.161626 -88.1673657,-45.032253 3.2e-6,-24.87063 39.4738767,-45.03225 88.1673657,-45.03225 48.693491,0 88.167371,20.16162 88.167371,45.03225 z"
           id="path856" />
        <path
           style="color:#000000;font-style:normal;font-variant:normal;font-weight:normal;font-stretch:normal;font-size:medium;line-height:normal;font-family:sans-serif;font-variant-ligatures:normal;font-variant-position:normal;font-variant-caps:normal;font-variant-numeric:normal;font-variant-alternates:normal;font-variant-east-asian:normal;font-feature-settings:normal;font-variation-settings:normal;text-indent:0;text-align:start;text-decoration:none;text-decoration-line:none;text-decoration-style:solid;text-decoration-color:#000000;letter-spacing:normal;word-spacing:normal;text-transform:none;writing-mode:lr-tb;direction:ltr;text-orientation:mixed;dominant-baseline:auto;baseline-shift:baseline;text-anchor:start;white-space:normal;shape-padding:0;shape-margin:0;inline-size:0;clip-rule:nonzero;display:inline;overflow:visible;visibility:visible;isolation:auto;mix-blend-mode:normal;color-interpolation:sRGB;color-interpolation-filters:linearRGB;solid-color:#000000;solid-opacity:1;vector-effect:none;fill:#ff5555;fill-opacity:1;fill-rule:nonzero;stroke:none;stroke-width:0;stroke-linecap:butt;stroke-linejoin:round;stroke-miterlimit:4;stroke-dasharray:none;stroke-dashoffset:0;stroke-opacity:1;color-rendering:auto;image-rendering:auto;shape-rendering:auto;text-rendering:auto;enable-background:accumulate;stop-color:#000000;stop-opacity:1"
           d="m 93.759766,-141.80273 c -24.348953,0 -46.393472,5.04067 -62.351563,13.1914 -15.958091,8.15074 -25.8320295,19.41365 -25.8320311,31.857424 0,12.443778 9.8739401,23.704734 25.8320311,31.855468 15.958091,8.150735 38.002609,13.191407 62.351563,13.191407 24.348954,0 46.391514,-5.040672 62.349614,-13.191407 15.95809,-8.150734 25.83203,-19.41169 25.83203,-31.855468 -1e-5,-12.443774 -9.87394,-23.706684 -25.83203,-31.857424 -15.9581,-8.15073 -38.00066,-13.19141 -62.349614,-13.1914 z m 0,0.0312 c 24.344534,-10e-6 46.383714,5.04171 62.335934,13.18945 15.95222,8.14773 25.81445,19.40128 25.81446,31.828124 0,12.426849 -9.86224,23.680389 -25.81446,31.828125 -15.95222,8.147735 -37.9914,13.1875 -62.335934,13.1875 -24.344538,0 -46.385672,-5.039765 -62.337891,-13.1875 -15.952219,-8.147736 -25.8144531,-19.401277 -25.8144531,-31.828125 1.6e-6,-12.426844 9.8622341,-23.680394 25.8144531,-31.828124 15.952219,-8.14774 37.993354,-13.18945 62.337891,-13.18945 z"
           id="path858" />
      </g>
      <path
         style="fill:#ffffff;fill-opacity:1;stroke:none;stroke-width:0.264583px;stroke-linecap:butt;stroke-linejoin:miter;stroke-opacity:1"
         d="m 14.155572,-81.08181 -0.05237,-27.39252 c 0,0 6.090398,-1.98254 9.25111,-2.33871 0.309984,-0.0349 0.627599,-0.0278 0.935587,0.0217 0.400627,0.0644 0.804249,0.16801 1.164474,0.35481 0.58388,0.30277 1.095103,0.74364 1.557558,1.21132 0.367299,0.37145 0.680113,0.79941 0.948122,1.2478 0.296415,0.49591 0.641006,1.00464 0.718927,1.57711 0.41383,3.04031 0.875872,6.32455 0.520649,9.359421 -0.0478,0.408355 -0.36172,0.811805 -0.630028,1.160879 -0.271665,0.353441 -0.618026,0.647512 -0.971756,0.918801 -0.38557,0.295709 -1.2419,0.763319 -1.2419,0.763319 l 4.122539,12.91662 -6.108289,0.0679 -4.206129,-12.02263 0.0077,11.98063 -6.016158,0.074 z"
         id="path847" />
      <path
         style="color:#000000;font-style:normal;font-variant:normal;font-weight:normal;font-stretch:normal;font-size:medium;line-height:normal;font-family:sans-serif;font-variant-ligatures:normal;font-variant-position:normal;font-variant-caps:normal;font-variant-numeric:normal;font-variant-alternates:normal;font-variant-east-asian:normal;font-feature-settings:normal;font-variation-settings:normal;text-indent:0;text-align:start;text-decoration:none;text-decoration-line:none;text-decoration-style:solid;text-decoration-color:#000000;letter-spacing:normal;word-spacing:normal;text-transform:none;writing-mode:lr-tb;direction:ltr;text-orientation:mixed;dominant-baseline:auto;baseline-shift:baseline;text-anchor:start;white-space:normal;shape-padding:0;shape-margin:0;inline-size:0;clip-rule:nonzero;display:inline;overflow:visible;visibility:visible;opacity:1;isolation:auto;mix-blend-mode:normal;color-interpolation:sRGB;color-interpolation-filters:linearRGB;solid-color:#000000;solid-opacity:1;vector-effect:none;fill:#000000;fill-opacity:1;fill-rule:nonzero;stroke:none;stroke-width:0.997868;stroke-linecap:butt;stroke-linejoin:round;stroke-miterlimit:4;stroke-dasharray:none;stroke-dashoffset:0;stroke-opacity:1;color-rendering:auto;image-rendering:auto;shape-rendering:auto;text-rendering:auto;enable-background:accumulate;stop-color:#000000;stop-opacity:1"
         d="m 93.759766,-146.78516 c -25.654107,0 -48.884462,5.55323 -65.742188,14.56641 -16.857726,9.01318 -27.39843632,21.53495 -27.39843738,35.464844 10e-9,13.929896 10.54071138,26.449707 27.39843738,35.46289 16.857727,9.013184 40.08808,14.566407 65.742188,14.566407 25.654104,0 48.884464,-5.553223 65.742184,-14.566407 16.85773,-9.013183 27.39649,-21.532994 27.39649,-35.46289 0,-13.929894 -10.53876,-26.451664 -27.39649,-35.464844 -16.85772,-9.01318 -40.08808,-14.56641 -65.742184,-14.56641 z m 0,0.99805 c 25.509934,0 48.599874,5.53554 65.271484,14.44922 16.67161,8.91367 26.86914,21.15841 26.86914,34.583984 0,13.425569 -10.19753,25.670308 -26.86914,34.583984 -16.67161,8.913676 -39.76155,14.447266 -65.271484,14.447266 -25.509939,0 -48.599872,-5.53359 -65.271485,-14.447266 -16.671612,-8.913676 -26.8710935,-21.158415 -26.8710935,-34.583984 10e-7,-13.425574 10.1994815,-25.670314 26.8710935,-34.583984 16.671613,-8.91368 39.761546,-14.44922 65.271485,-14.44922 z"
         id="path862" />
      <path
         style="fill:#ffffff;fill-opacity:1;stroke:none;stroke-width:0.264583px;stroke-linecap:butt;stroke-linejoin:miter;stroke-opacity:1"
         d="m 33.181711,-81.35433 5.316959,-34.695 8.834797,-2.253 5.438011,36.895 -5.983058,0.071 -1.305,-7.68695 -5.164162,0.0189 -1.213524,7.67105 z"
         id="path851" />
      <path
         style="fill:#ffffff;fill-opacity:1;stroke:none;stroke-width:0.264583px;stroke-linecap:butt;stroke-linejoin:miter;stroke-opacity:1"
         d="m 59.002855,-121.23037 -6.464864,1.52495 6.276559,21.23954 -0.165684,17.08055 6.576369,-0.034 0.102525,-18.43215 6.843701,-23.96526 -6.512638,1.43224 -3.33936,13.0078 z"
         id="path855" />
      <path
         style="fill:#ffffff;fill-opacity:1;stroke:none;stroke-width:0.264583px;stroke-linecap:butt;stroke-linejoin:miter;stroke-opacity:1"
         d="m 90.45645,-127.58509 -16.14311,3.46231 -0.415858,6.7349 5.087765,-1.22826 -0.0536,37.30681 6.862866,-0.015 -0.0031,-38.52612 4.606311,-0.78581 z"
         id="path857" />
      <path
         style="fill:#ffffff;fill-opacity:1;stroke:none;stroke-width:0.264583px;stroke-linecap:butt;stroke-linejoin:miter;stroke-opacity:1"
         d="m 94.23003,-127.63199 -0.0477,46.29566 7.14254,0.013 0.0334,-17.32858 4.31016,-0.0527 -0.095,17.42914 6.71154,-0.082 0.22205,-42.3102 -6.66727,-1.33495 0.0545,19.58271 -4.31166,-0.0705 0.0573,-20.50783 z"
         id="path859" />
      <path
         style="fill:#ffffff;fill-opacity:1;stroke:none;stroke-width:0.264583px;stroke-linecap:butt;stroke-linejoin:miter;stroke-opacity:1"
         d="m 131.4568,-120.08104 -13.20913,-2.48668 -0.23709,41.17839 13.24062,0.023 0.0552,-6.972 -6.66633,0.0558 -0.008,-10.61576 6.32333,0.294 -0.0588,-6.913 -6.21374,-0.10804 -0.005,-9.13617 6.79788,1.26961 z"
         id="path861" />
      <path
         style="fill:#ffffff;fill-opacity:1;stroke:none;stroke-width:0.264583px;stroke-linecap:butt;stroke-linejoin:miter;stroke-opacity:1"
         d="m 135.16471,-106.42401 c 0.0147,3.72572 0.0442,11.176901 0.11302,15.127653 0.0688,3.950752 0.17698,4.401043 0.4933,5.084854 0.31632,0.68381 0.84072,1.601149 1.54852,2.403302 0.7078,0.802153 1.59888,1.489203 2.58971,1.938887 0.99083,0.449683 2.0814,0.662164 3.32283,0.626417 1.24144,-0.03575 2.63385,-0.319621 3.73785,-0.682085 1.10401,-0.362463 1.91973,-0.803511 2.56968,-1.365646 0.64996,-0.562135 1.13871,-1.251725 1.52384,-1.99207 0.38513,-0.740345 0.67551,-1.544066 0.88458,-5.436556 0.20906,-3.892491 0.33674,-10.873856 0.23068,-14.971916 -0.10606,-4.09806 -0.45305,-5.33818 -0.87514,-6.28757 -0.42208,-0.94939 -0.92295,-1.62068 -1.4846,-2.22967 -0.56166,-0.60899 -1.18417,-1.15563 -1.78514,-1.62045 -0.60097,-0.46482 -1.18042,-0.84776 -1.9337,-1.17732 -0.75328,-0.32955 -1.6804,-0.60561 -2.6053,-0.69701 -0.9249,-0.0914 -1.8475,0.002 -2.7469,0.32089 -0.89939,0.31889 -1.77543,0.86331 -2.43601,1.40514 -0.66058,0.54182 -1.1056,1.08097 -1.56915,1.78461 -0.46356,0.70363 -0.94562,1.57168 -1.21416,2.27298 -0.26854,0.70129 -0.32359,1.23568 -0.35111,1.50276 -0.0275,0.26708 -0.0275,0.26708 -0.0128,3.9928 z"
         id="path863" />
      <path
         style="fill:#ffffff;fill-opacity:1;stroke:none;stroke-width:0.264583px;stroke-linecap:butt;stroke-linejoin:miter;stroke-opacity:1"
         d="m 156.66917,-112.99914 0.14265,31.73681 6.3436,0.046 -0.15798,-12.83094 4.8969,12.68784 4.92816,0.0241 0.21863,-27.36823 -5.80448,-1.2839 -0.0448,11.45497 -4.46816,-12.87782 z"
         id="path871" />
      <path
         style="fill:#000013;fill-opacity:1;stroke:none;stroke-width:0.264583px;stroke-linecap:butt;stroke-linejoin:miter;stroke-opacity:1"
         d="m 44.73342,-94.69433 -3.87,0.0406 1.851,-13.2216 z"
         id="path853" />
      <path
         style="fill:#000000;fill-opacity:1;stroke:none;stroke-width:0.264583px;stroke-linecap:butt;stroke-linejoin:miter;stroke-opacity:1"
         d="m 19.955204,-98.87734 -0.06724,-5.50315 c 0,0 1.562206,-0.5805 2.372214,-0.54206 0.340957,0.0162 0.555657,0.41362 0.754736,0.69043 0.138263,0.19225 0.234356,0.41881 0.287799,0.64951 0.270257,1.16661 0.368858,2.41502 0.137148,3.5899 -0.05652,0.286576 -0.18311,0.56757 -0.363409,0.79738 -0.157393,0.200614 -0.346864,0.44794 -0.600581,0.47378 -0.837218,0.08526 -2.52067,0.03409 -2.52067,0.03409 z"
         id="path938" />
      <g
         id="g864"
         style="opacity:1">
        <path
           style="color:#000000;font-style:normal;font-variant:normal;font-weight:normal;font-stretch:normal;font-size:medium;line-height:normal;font-family:sans-serif;font-variant-ligatures:normal;font-variant-position:normal;font-variant-caps:normal;font-variant-numeric:normal;font-variant-alternates:normal;font-variant-east-asian:normal;font-feature-settings:normal;font-variation-settings:normal;text-indent:0;text-align:start;text-decoration:none;text-decoration-line:none;text-decoration-style:solid;text-decoration-color:#000000;letter-spacing:normal;word-spacing:normal;text-transform:none;writing-mode:lr-tb;direction:ltr;text-orientation:mixed;dominant-baseline:auto;baseline-shift:baseline;text-anchor:start;white-space:normal;shape-padding:0;shape-margin:0;inline-size:0;clip-rule:nonzero;display:inline;overflow:visible;visibility:visible;isolation:auto;mix-blend-mode:normal;color-interpolation:sRGB;color-interpolation-filters:linearRGB;solid-color:#000000;solid-opacity:1;vector-effect:none;fill:#000000;fill-opacity:1;fill-rule:nonzero;stroke:none;stroke-width:0.266552px;stroke-linecap:butt;stroke-linejoin:miter;stroke-miterlimit:4;stroke-dasharray:none;stroke-dashoffset:0;stroke-opacity:1;color-rendering:auto;image-rendering:auto;shape-rendering:auto;text-rendering:auto;enable-background:accumulate;stop-color:#000000;stop-opacity:1"
           d="m 141.4115,-100.46085 c -0.0132,-1.78796 -0.0397,-5.36406 0.0831,-7.35844 0.12279,-1.99437 0.39488,-2.40665 0.79029,-2.70249 0.39542,-0.29584 0.91392,-0.47509 1.41888,-0.47948 0.50495,-0.004 0.99616,0.16589 1.38689,0.40349 0.39074,0.2376 0.68102,0.54232 0.8128,2.51419 0.13178,1.97186 0.10531,5.6107 0.10132,9.02558 -0.004,3.414882 0.0145,6.605553 -0.0629,8.308397 -0.0773,1.702845 -0.25043,1.917945 -0.47796,2.133027 -0.22752,0.215082 -0.50951,0.43019 -0.82779,0.537759 -0.31827,0.107569 -0.67304,0.107569 -1.0642,0.10309 -0.39115,-0.0045 -0.81869,-0.01344 -1.13253,-0.09848 -0.31383,-0.08503 -0.51395,-0.246367 -0.68662,-0.425592 -0.17267,-0.179225 -0.31782,-0.376398 -0.36796,-2.074911 -0.0501,-1.698514 -0.005,-4.898187 0.0175,-6.498186 0.0225,-1.6 0.0224,-1.599999 0.009,-3.387954 z"
           id="path866" />
        <path
           style="color:#000000;font-style:normal;font-variant:normal;font-weight:normal;font-stretch:normal;font-size:medium;line-height:normal;font-family:sans-serif;font-variant-ligatures:normal;font-variant-position:normal;font-variant-caps:normal;font-variant-numeric:normal;font-variant-alternates:normal;font-variant-east-asian:normal;font-feature-settings:normal;font-variation-settings:normal;text-indent:0;text-align:start;text-decoration:none;text-decoration-line:none;text-decoration-style:solid;text-decoration-color:#000000;letter-spacing:normal;word-spacing:normal;text-transform:none;writing-mode:lr-tb;direction:ltr;text-orientation:mixed;dominant-baseline:auto;baseline-shift:baseline;text-anchor:start;white-space:normal;shape-padding:0;shape-margin:0;inline-size:0;clip-rule:nonzero;display:inline;overflow:visible;visibility:visible;isolation:auto;mix-blend-mode:normal;color-interpolation:sRGB;color-interpolation-filters:linearRGB;solid-color:#000000;solid-opacity:1;vector-effect:none;fill:#000000;fill-opacity:1;fill-rule:nonzero;stroke:none;stroke-width:0.266552px;stroke-linecap:butt;stroke-linejoin:miter;stroke-miterlimit:4;stroke-dasharray:none;stroke-dashoffset:0;stroke-opacity:1;color-rendering:auto;image-rendering:auto;shape-rendering:auto;text-rendering:auto;enable-background:accumulate;stop-color:#000000;stop-opacity:1"
           d="m 143.70312,-111.13477 c -0.53569,0.005 -1.07856,0.19202 -1.49804,0.50586 -0.20975,0.15693 -0.40314,0.36935 -0.54297,0.7793 -0.13983,0.40995 -0.23905,1.01883 -0.30078,2.02149 -0.12347,2.0053 -0.0972,5.58118 -0.084,7.36914 0.0132,1.787962 0.0147,1.78477 -0.008,3.384761 -0.0225,1.6 -0.0679,4.798102 -0.0176,6.503907 0.0252,0.852896 0.0727,1.331902 0.14063,1.632812 0.0679,0.30091 0.17334,0.435535 0.26367,0.529297 0.18064,0.1875 0.40695,0.370468 0.74805,0.462891 0.34104,0.09241 0.77393,0.09903 1.16601,0.103515 0.39208,0.0045 0.76264,0.0059 1.10938,-0.111328 0.34671,-0.11718 0.63976,-0.344033 0.875,-0.566406 0.11762,-0.111187 0.24536,-0.257744 0.33203,-0.570313 0.0867,-0.312569 0.14864,-0.798626 0.1875,-1.654297 0.0777,-1.711342 0.0605,-4.900148 0.0644,-8.314453 0.004,-3.414306 0.031,-7.049276 -0.10156,-9.033206 -0.0663,-0.99197 -0.17114,-1.57103 -0.31836,-1.94726 -0.14722,-0.37623 -0.35414,-0.54755 -0.55859,-0.67188 -0.40895,-0.24868 -0.92137,-0.42849 -1.45704,-0.42383 z m 0.002,0.26758 c 0.47424,-0.004 0.94389,0.15629 1.3164,0.38281 0.18628,0.11328 0.32068,0.21252 0.44922,0.54102 0.12855,0.3285 0.23334,0.88925 0.29883,1.86914 0.13098,1.95979 0.10556,5.60017 0.10156,9.015626 -0.004,3.41546 0.0144,6.608388 -0.0625,8.302735 -0.0385,0.847174 -0.10163,1.32124 -0.17773,1.595703 -0.0761,0.274463 -0.14791,0.34337 -0.25781,0.447265 -0.21981,0.207791 -0.48946,0.409854 -0.7793,0.507813 -0.28981,0.09795 -0.6293,0.100171 -1.01953,0.0957 -0.39023,-0.0045 -0.81299,-0.01609 -1.09961,-0.09375 -0.28657,-0.07765 -0.4603,-0.217722 -0.625,-0.388672 -0.0823,-0.08546 -0.13695,-0.137186 -0.19727,-0.404297 -0.0603,-0.267111 -0.1098,-0.736413 -0.13476,-1.582031 -0.0499,-1.691224 -0.005,-4.892188 0.0176,-6.492187 0.0225,-1.600009 0.023,-1.602675 0.01,-3.390625 -0.0132,-1.78796 -0.0401,-5.36616 0.082,-7.34961 0.0611,-0.99172 0.16134,-1.58438 0.28711,-1.95312 0.12577,-0.36874 0.26551,-0.51343 0.45117,-0.65235 0.37135,-0.27782 0.86564,-0.44704 1.33985,-0.45117 z"
           id="path868" />
      </g>
    </g>
  </g>
</svg>
